<?xml version="1.0" encoding="utf-8"?>
<!-- Generator: Adobe Illustrator 22.0.1, SVG Export Plug-In . SVG Version: 6.00 Build 0)  -->
<svg version="1.1" id="Layer_1" xmlns="http://www.w3.org/2000/svg" xmlns:xlink="http://www.w3.org/1999/xlink" x="0px" y="0px"
	 viewBox="0 0 287.6 89.7" style="enable-background:new 0 0 287.6 89.7;" xml:space="preserve">
<style type="text/css">
	.st0{clip-path:url(#SVGID_2_);}
	.st1{clip-path:url(#SVGID_6_);}
</style>
<g>
	<g>
		<defs>
			<path id="SVGID_1_" d="M178.4,41.1c0-3.8,3.1-6.9,6.9-6.9c3.8,0,6.9,3.1,6.9,6.9c0,3.8-3.1,6.9-6.9,6.9
				C181.5,48,178.4,44.9,178.4,41.1 M173.5,41.1c0,6.5,5.3,11.8,11.8,11.8c6.5,0,11.8-5.3,11.8-11.8c0-6.5-5.3-11.8-11.8-11.8
				C178.8,29.4,173.5,34.6,173.5,41.1 M199.2,41.1v11.5h4.9V41.1c0-3.8,3.1-6.9,6.9-6.9v-4.9C204.5,29.4,199.2,34.6,199.2,41.1
				 M220.7,46.5c-1.7-1.2-2.8-3.2-2.8-5.5c0-3.8,3-6.8,6.8-6.8c2.2,0,4.2,1.1,5.5,2.8c0.8,1.1,1.3,2.5,1.3,4c0,3.8-3,6.8-6.8,6.8
				C223.3,47.8,221.9,47.3,220.7,46.5 M213.2,41c0,5,3.2,9.2,7.6,10.9c1.3,0.5,2.6,0.7,4,0.7h11.6V41c0-1.4-0.3-2.8-0.7-4
				c-1.6-4.4-5.9-7.6-10.9-7.6C218.4,29.4,213.2,34.6,213.2,41 M269,41.1c0-3.8,3.1-6.9,6.9-6.9c3.8,0,6.9,3.1,6.9,6.9
				c0,3.8-3.1,6.9-6.9,6.9C272.1,48,269,44.9,269,41.1 M264.1,41.1c0,6.5,5.3,11.8,11.8,11.8c6.5,0,11.8-5.3,11.8-11.8
				c0-6.5-5.3-11.8-11.8-11.8C269.4,29.4,264.1,34.6,264.1,41.1 M152.9,41.1c0-3.8,3.1-6.9,6.9-6.9c3.2,0,5.9,2.2,6.7,5.2v3.4
				c-0.8,3-3.5,5.2-6.7,5.2C156,48,152.9,44.9,152.9,41.1 M166.5,19.1v12.4c-1.9-1.3-4.2-2.1-6.7-2.1c-6.5,0-11.8,5.3-11.8,11.8
				c0,6.5,5.3,11.8,11.8,11.8c2.5,0,4.8-0.8,6.7-2.1c3.1-2.1,5.1-5.7,5.1-9.7V19.1H166.5z M243.4,41.1c0-3.8,3.1-6.9,6.9-6.9
				c3.2,0,5.9,2.2,6.7,5.2v3.4c-0.8,3-3.5,5.2-6.7,5.2C246.5,48,243.4,44.9,243.4,41.1 M257,19.1v12.4c-1.9-1.3-4.2-2.1-6.7-2.1
				c-6.5,0-11.8,5.3-11.8,11.8c0,6.5,5.3,11.8,11.8,11.8c2.5,0,4.8-0.8,6.7-2.1c3.1-2.1,5.1-5.7,5.1-9.7V19.1H257z"/>
		</defs>
		<clipPath id="SVGID_2_">
			<use xlink:href="#SVGID_1_"  style="overflow:visible;"/>
		</clipPath>
		<g class="st0">
			<defs>
				<rect id="SVGID_3_" x="-4.2" y="-119.4" width="331.1" height="186.2"/>
			</defs>
			<clipPath id="SVGID_4_">
				<use xlink:href="#SVGID_3_"  style="overflow:visible;"/>
			</clipPath>
			<g style="clip-path:url(#SVGID_4_);">
				
					<image style="overflow:visible;" width="1920" height="1080" xlink:href="A1EE19564A3896E4.jpg"  transform="matrix(0.1366 0 0 0.1365 79.8696 -51.6258)">
				</image>
			</g>
		</g>
	</g>
	<g>
		<defs>
			<path id="SVGID_5_" d="M102.9,25.5l-39,39.2L25,25.5H0l63.9,64.2l64-64.2H102.9z M96.3,0H31.8L64,32.2L96.3,0z M113.1,12.3H86.7
				l-22.8,23l-22.8-23H14.7l49.2,49.4L113.1,12.3z"/>
		</defs>
		<clipPath id="SVGID_6_">
			<use xlink:href="#SVGID_5_"  style="overflow:visible;"/>
		</clipPath>
		<g class="st1">
			<defs>
				<rect id="SVGID_7_" x="-137.9" y="-23.3" width="265.8" height="147.7"/>
			</defs>
			<clipPath id="SVGID_8_">
				<use xlink:href="#SVGID_7_"  style="overflow:visible;"/>
			</clipPath>
			<g transform="matrix(1 0 0 1 0 0)" style="clip-path:url(#SVGID_8_);">
				
					<image style="overflow:visible;" width="1920" height="1067" xlink:href="A1EE19564A3896E4.png"  transform="matrix(0.1222 0 0 0.1222 -106.778 -5.9672)">
				</image>
			</g>
		</g>
	</g>
</g>
</svg>
