<?xml version="1.0" encoding="utf-8"?>
<!-- Generator: Adobe Illustrator 22.0.1, SVG Export Plug-In . SVG Version: 6.00 Build 0)  -->
<svg version="1.1" id="Layer_1" xmlns="http://www.w3.org/2000/svg" xmlns:xlink="http://www.w3.org/1999/xlink" x="0px" y="0px"
	 viewBox="0 0 260.7 86.4" style="enable-background:new 0 0 260.7 86.4;" xml:space="preserve">
<style type="text/css">
	.st0{fill:#38115E;}
</style>
<g>
	<g>
		<g>
			<path class="st0" d="M153.6,39.2c-1.7-1.2-3.7-1.8-5.9-1.8c-5.7,0-10.4,4.7-10.4,10.4c0,5.7,4.7,10.4,10.4,10.4
				c2.2,0,4.2-0.7,5.9-1.8c2.7-1.9,4.5-5,4.5-8.6V28.2h-4.5V39.2z M153.6,49.2c-0.7,2.6-3.1,4.6-5.9,4.6c-3.4,0-6.1-2.7-6.1-6.1
				s2.7-6.1,6.1-6.1c2.8,0,5.2,2,5.9,4.6V49.2z"/>
			<path class="st0" d="M205.1,37.3c-5.7,0-10.3,4.6-10.3,10.3c0,4.4,2.8,8.2,6.7,9.6c1.1,0.4,2.3,0.7,3.6,0.7h10.3V47.6
				c0-1.3-0.2-2.5-0.7-3.6C213.3,40.1,209.5,37.3,205.1,37.3z M205.1,53.6c-1.3,0-2.6-0.4-3.6-1.2c-1.5-1.1-2.4-2.9-2.4-4.8
				c0-3.3,2.7-6,6-6c2,0,3.7,1,4.8,2.4c0.7,1,1.2,2.2,1.2,3.6C211.1,50.9,208.4,53.6,205.1,53.6z"/>
			<path class="st0" d="M250.3,37.3c-5.7,0-10.4,4.7-10.4,10.4c0,5.7,4.7,10.4,10.4,10.4c5.7,0,10.4-4.7,10.4-10.4
				C260.7,42,256,37.3,250.3,37.3z M250.3,53.8c-3.4,0-6.1-2.7-6.1-6.1s2.7-6.1,6.1-6.1c3.4,0,6.1,2.7,6.1,6.1
				S253.6,53.8,250.3,53.8z"/>
			<path class="st0" d="M233.5,39.2c-1.7-1.2-3.7-1.8-5.9-1.8c-5.7,0-10.4,4.7-10.4,10.4c0,5.7,4.7,10.4,10.4,10.4
				c2.2,0,4.2-0.7,5.9-1.8c2.7-1.9,4.5-5,4.5-8.6V28.2h-4.5V39.2z M233.5,49.2c-0.7,2.6-3.1,4.6-5.9,4.6c-3.4,0-6.1-2.7-6.1-6.1
				s2.7-6.1,6.1-6.1c2.8,0,5.2,2,5.9,4.6V49.2z"/>
			<path class="st0" d="M170.2,37.3c-5.7,0-10.4,4.7-10.4,10.4c0,5.7,4.7,10.4,10.4,10.4c5.7,0,10.4-4.7,10.4-10.4
				C180.6,42,175.9,37.3,170.2,37.3z M170.2,53.8c-3.4,0-6.1-2.7-6.1-6.1s2.7-6.1,6.1-6.1c3.4,0,6.1,2.7,6.1,6.1
				S173.6,53.8,170.2,53.8z"/>
			<path class="st0" d="M182.5,47.7v10.1h4.3V47.7c0-3.4,2.7-6.1,6.1-6.1v-4.3C187.2,37.3,182.5,42,182.5,47.7z"/>
		</g>
	</g>
	<g>
		<polygon class="st0" points="87.8,0 28.9,0 58.3,29.4 		"/>
		<polygon class="st0" points="103.2,13.5 79.1,13.5 58.3,34.4 37.5,13.5 13.5,13.5 58.3,58.6 		"/>
		<polygon class="st0" points="93.9,27.8 58.3,63.5 22.8,27.8 0,27.8 58.3,86.4 116.7,27.8 		"/>
	</g>
</g>
</svg>
