<?xml version="1.0" encoding="utf-8"?>
<!-- Generator: Adobe Illustrator 22.0.1, SVG Export Plug-In . SVG Version: 6.00 Build 0)  -->
<svg version="1.1" id="Layer_1" xmlns="http://www.w3.org/2000/svg" xmlns:xlink="http://www.w3.org/1999/xlink" x="0px" y="0px"
	 viewBox="0 0 40 40" style="enable-background:new 0 0 40 40;" xml:space="preserve">
<style type="text/css">
	.st0{fill:#3E0960;}
</style>
<title>social</title>
<path class="st0" d="M20.6,22.8L36,6.7C35.4,6.2,34.6,6,33.8,6H6.2C5.4,6,4.6,6.2,4,6.7l15.4,16.1C19.8,23.1,20.3,23.1,20.6,22.8z"
	/>
<path class="st0" d="M37.7,9.6L22.9,25.2c-1.6,1.5-4.1,1.5-5.8,0L17,25.1L2.3,9.6c0,0.1,0,0.2,0,0.3v20.1C2.3,32.2,4,34,6.2,34h27.6
	c2.2,0,3.9-1.8,3.9-3.9l0,0V9.9C37.7,9.8,37.7,9.7,37.7,9.6z"/>
</svg>
