<?xml version="1.0" encoding="utf-8"?>
<!-- Generator: Adobe Illustrator 22.0.1, SVG Export Plug-In . SVG Version: 6.00 Build 0)  -->
<svg version="1.1" id="Layer_1" xmlns="http://www.w3.org/2000/svg" xmlns:xlink="http://www.w3.org/1999/xlink" x="0px" y="0px"
	 viewBox="0 0 40 40" style="enable-background:new 0 0 40 40;" xml:space="preserve">
<style type="text/css">
	.st0{fill:#3E0960;}
</style>
<title>social</title>
<path class="st0" d="M36.9,11.7c0-1.3-0.3-2.6-0.7-3.8C35.9,7.2,35.5,6.6,35,6c-0.2-0.2-0.3-0.4-0.5-0.6c-0.7-0.7-1.5-1.2-2.4-1.5
	c-1.2-0.5-2.5-0.7-3.8-0.7C26.1,3,25.5,3,20,3s-6.2,0-8.4,0.1c-1.3,0-2.6,0.3-3.8,0.7C6.9,4.2,6.1,4.7,5.4,5.4
	C4.7,6,4.2,6.9,3.8,7.8C3.4,9,3.1,10.3,3.1,11.6C3,13.8,3,14.4,3,19.9s0,6.2,0.1,8.3c0,1.3,0.3,2.6,0.7,3.8C4.1,32.8,4.5,33.4,5,34
	c0.2,0.2,0.3,0.4,0.5,0.6c0.7,0.7,1.5,1.2,2.4,1.5c1.2,0.5,2.5,0.7,3.8,0.7c2.2,0.1,2.8,0.1,8.4,0.1s6.2,0,8.4-0.1
	c1.3,0,2.6-0.3,3.8-0.7c0.9-0.3,1.7-0.9,2.4-1.5c0.7-0.7,1.2-1.5,1.5-2.4c0.5-1.2,0.7-2.5,0.7-3.8c0.1-2.2,0.1-2.8,0.1-8.4
	S37,13.9,36.9,11.7 M9.4,20.1c0-5.8,4.7-10.4,10.5-10.4c5.8,0,10.4,4.7,10.4,10.5s-4.7,10.4-10.5,10.4c-3.1,0-6-1.4-8-3.8
	C10.3,24.9,9.4,22.5,9.4,20.1 M33.4,8.9c0,1.4-1.1,2.5-2.4,2.5c-0.8,0-1.5-0.4-2-1C28.7,10,28.6,9.5,28.6,9c0-1.4,1.1-2.5,2.5-2.5
	c0.8,0,1.5,0.4,2,1C33.4,7.9,33.5,8.4,33.4,8.9"/>
<path class="st0" d="M20,26.6c3.6,0,6.6-2.9,6.6-6.6c0-3.6-2.9-6.6-6.6-6.6s-6.6,2.9-6.6,6.6c0,0,0,0,0,0
	C13.5,23.7,16.4,26.6,20,26.6"/>
</svg>
