<?xml version="1.0" encoding="utf-8"?>
<!-- Generator: Adobe Illustrator 22.0.1, SVG Export Plug-In . SVG Version: 6.00 Build 0)  -->
<svg version="1.1" id="Layer_1" xmlns="http://www.w3.org/2000/svg" xmlns:xlink="http://www.w3.org/1999/xlink" x="0px" y="0px"
	 viewBox="0 0 40 40" style="enable-background:new 0 0 40 40;" xml:space="preserve">
<style type="text/css">
	.st0{fill:#3E0960;}
</style>
<title>social</title>
<path class="st0" d="M33.3,3.7c-5.2-0.2-8.7,2.8-10.6,8.8c0.9-0.4,1.8-0.6,2.8-0.6c1.9,0,2.8,1.1,2.5,3.2c-0.1,1.3-1,3.2-2.5,5.7
	s-2.8,3.7-3.5,3.7c-1,0-1.9-1.9-2.8-5.8c-0.3-1.1-0.8-4-1.5-8.6c-0.7-4.3-2.5-6.3-5.4-6C11,4.3,9.2,5.4,6.7,7.6
	c-1.8,1.6-3.6,3.2-5.5,4.9L3,14.8C3.9,14,4.9,13.4,5.9,13c1.3,0,2.5,2,3.6,6.1c1,3.7,2,7.4,3,11.1c1.5,4,3.4,6.1,5.6,6.1
	c3.5,0,7.9-3.3,13-10c5-6.4,7.5-11.4,7.7-15.1C39,6.3,37.2,3.8,33.3,3.7"/>
</svg>
