<svg id="Layer_1" data-name="Layer 1" xmlns="http://www.w3.org/2000/svg" viewBox="0 0 40 40"><defs><style>.cls-1{fill:#c8aa44;}</style></defs><title>social</title><path class="cls-1" d="M20.64,22.79,36,6.69A3.94,3.94,0,0,0,33.81,6H6.19A3.94,3.94,0,0,0,4,6.69l15.39,16.1A1,1,0,0,0,20.64,22.79Z"/><path class="cls-1" d="M37.72,9.65,22.88,25.16a4.26,4.26,0,0,1-5.76,0L17,25.09,2.28,9.65a2.46,2.46,0,0,0,0,.28V30.07A3.93,3.93,0,0,0,6.19,34H33.81a3.93,3.93,0,0,0,3.93-3.93V9.93A2.46,2.46,0,0,0,37.72,9.65Z"/></svg>