<svg id="Layer_1" data-name="Layer 1" xmlns="http://www.w3.org/2000/svg" viewBox="0 0 40 40"><defs><style>.cls-1{fill:#c8aa44;}</style></defs><title>social</title><path class="cls-1" d="M33.33,3.72q-7.81-.26-10.6,8.84a7.09,7.09,0,0,1,2.79-.62c1.91,0,2.76,1.08,2.53,3.23q-.16,1.95-2.53,5.68T22,24.59c-1,0-1.94-1.92-2.79-5.76q-.42-1.68-1.52-8.63-1-6.42-5.41-6-1.86.18-5.58,3.39Q4,10,1.18,12.48L3,14.76A11.91,11.91,0,0,1,5.9,13c1.3,0,2.5,2,3.63,6.08q1.51,5.58,3,11.15c1.52,4,3.37,6.08,5.57,6.08q5.31,0,13-10,7.43-9.55,7.67-15.06c.22-4.91-1.6-7.41-5.47-7.53"/></svg>