<svg id="Layer_1" data-name="Layer 1" xmlns="http://www.w3.org/2000/svg" viewBox="0 0 40 40"><defs><style>.cls-1{fill:#c8aa44;}</style></defs><title>social</title><path class="cls-1" d="M36.87,11.72a11.47,11.47,0,0,0-.71-3.84A6.41,6.41,0,0,0,35.05,6a6.05,6.05,0,0,0-.54-.61,6.42,6.42,0,0,0-2.38-1.55,11.46,11.46,0,0,0-3.83-.71C26.12,3,25.46,3,20,3s-6.17,0-8.35.12a11.53,11.53,0,0,0-3.84.71A6.38,6.38,0,0,0,5.39,5.38,6.51,6.51,0,0,0,3.84,7.75a11.47,11.47,0,0,0-.71,3.84C3,13.77,3,14.42,3,19.94s0,6.17.12,8.34a11.47,11.47,0,0,0,.71,3.84A6.2,6.2,0,0,0,5,34a6.05,6.05,0,0,0,.54.61,6.42,6.42,0,0,0,2.38,1.55,11.46,11.46,0,0,0,3.83.71c2.18.1,2.84.12,8.35.12s6.17,0,8.35-.12a11.53,11.53,0,0,0,3.84-.71,6.38,6.38,0,0,0,2.37-1.55,6.51,6.51,0,0,0,1.55-2.37,11.47,11.47,0,0,0,.71-3.84c.1-2.18.12-2.83.12-8.35s0-6.17-.12-8.34M9.44,20.06a10.42,10.42,0,1,1,2.37,6.68,10.6,10.6,0,0,1-2.37-6.68m24-11.15A2.47,2.47,0,0,1,29,10.42,2.52,2.52,0,0,1,28.6,9a2.48,2.48,0,0,1,2.48-2.48,2.44,2.44,0,0,1,2,1,2.42,2.42,0,0,1,.42,1.38"/><path class="cls-1" d="M20.05,26.62a6.56,6.56,0,1,0-6.56-6.56,6.56,6.56,0,0,0,6.56,6.56"/></svg>